<!-- Generated by IcoMoon.io -->
<svg version="1.1" xmlns="http://www.w3.org/2000/svg" width="192" height="192" viewBox="0 0 192 192">
<title>WP-Logo-White</title>
<path fill="#fff" d="M0 0h192v192h-192v-192z"></path>
<path fill="#000" d="M80.169 111.231l9.436-51.231h14.395l-15.55 72h-14.54l-11.41-48.165-11.41 48.165h-14.539l-15.55-72h14.395l9.484 51.132 11.554-51.132h12.229l11.506 51.231zM131.529 106.632v25.368h-14.529v-72h27.508c5.295 0 9.953 0.989 13.972 2.967s7.111 4.788 9.274 8.431c2.163 3.643 3.245 7.788 3.245 12.437 0 7.055-2.365 12.618-7.095 16.69s-11.276 6.107-19.639 6.107h-12.737zM132 95h12.563c3.719 0 6.555-0.939 8.508-2.818s2.93-4.563 2.93-8.053c0-3.59-0.984-6.492-2.953-8.707s-4.688-3.355-8.156-3.422h-12.891v23z"></path>
</svg>
